<?xml version="1.0" encoding="iso-8859-1"?>
<svg fill="#000000" height="800px" width="800px" version="1.1" id="Layer_1" xmlns="http://www.w3.org/2000/svg" xmlns:xlink="http://www.w3.org/1999/xlink" 
	 viewBox="0 0 512 512" xml:space="preserve">
<g>
	<g>
		<path d="M508.059,270.457L429.29,165.455c-3.718-4.957-9.553-7.876-15.754-7.874l-78.769,0.007
			c-10.874,0-19.69,8.817-19.69,19.692v190.31h-75.229c-6.424-20.383-22.544-36.503-42.925-42.927v-42.407h-39.385v42.407
			c-20.382,6.424-36.503,22.544-42.925,42.927H45.949c-10.875,0-19.692,8.817-19.692,19.692c0,10.875,8.817,19.692,19.692,19.692
			h68.662c8.385,26.603,33.285,45.949,62.62,45.949s54.237-19.346,62.62-45.949h78.247c8.385,26.603,33.285,45.949,62.62,45.949
			s54.237-19.346,62.62-45.949h48.969c10.874,0,19.692-8.817,19.692-19.692V282.275C512,278.013,510.618,273.866,508.059,270.457z
			 M177.231,413.538c-14.477,0-26.256-11.777-26.256-26.254c0-14.479,11.78-26.259,26.256-26.259s26.256,11.78,26.256,26.259
			C203.487,401.761,191.707,413.538,177.231,413.538z M406.974,387.285c0,7.843-3.476,14.874-8.947,19.69
			c-4.628,4.072-10.677,6.564-17.31,6.564s-12.682-2.492-17.31-6.564c-5.472-4.815-8.947-11.847-8.947-19.69v-0.003
			c0-7.844,3.476-14.877,8.948-19.692c4.625-4.072,10.675-6.564,17.308-6.564s12.682,2.492,17.308,6.564
			c5.472,4.815,8.948,11.848,8.948,19.692C406.974,387.282,406.974,387.283,406.974,387.285z"/>
	</g>
</g>
<g>
	<g>
		<path d="M269.922,77.972c-3.693-3.693-8.7-5.769-13.922-5.769l-138.99,0.001c-2.708-7.643-9.98-13.128-18.549-13.128
			c-10.875,0-19.692,8.817-19.692,19.692v2.589l-49.285,32.855c-2.886-1.659-6.223-2.623-9.792-2.623
			C8.817,111.59,0,120.407,0,131.282v13.127v65.641v13.13c0,10.875,8.817,19.692,19.692,19.692c3.57,0,6.908-0.964,9.795-2.624
			l49.282,32.856v2.589c0,10.875,8.817,19.692,19.692,19.692c8.57,0,15.841-5.485,18.549-13.128h40.528v-19.692v-19.692v-65.587
			c0-10.875,8.816-19.692,19.692-19.692c10.874,0,19.692,8.817,19.692,19.692v65.587v19.692v19.692H256
			c10.874,0,19.692-8.817,19.692-19.692V91.896C275.692,86.674,273.618,81.665,269.922,77.972z"/>
	</g>
</g>
</svg>
